# xmcd
#
# Track frame offsets: 
#        150
#        17190
#        39534
#        54752
#        85455
#        99823
#        109505
#        185764
#        265775
#        285096
#        300374
#        320841
#        338618
#
# Disc length: 4739 seconds
#
# Revision: 1
# Processed by: cddbd v1.5.2PL0 Copyright (c) Steve Scherf et al.
# Submitted via: ExactAudioCopyFreeDBPlugin 1.0
#
DISCID=9f12810d
DTITLE=NOUGARO Claude - Les 100 plus belles chansons - CD 5 - Comme un
DTITLE=e Piaf
DYEAR=2009
DGENRE=Blues
TTITLE0=Comme une Piaf
TTITLE1=Île deRé
TTITLE2=Quasimodo
TTITLE3=Jalousie
TTITLE4=Ma femme
TTITLE5=une petite fille
TTITLE6=Plume d'Ange
TTITLE7=Victor
TTITLE8=Pablo
TTITLE9=Jésus
TTITLE10=Le K du Q
TTITLE11=Les noces de sang
TTITLE12=Brésilien
EXTD=YEAR: 2009
EXTT0=
EXTT1=
EXTT2=
EXTT3=
EXTT4=
EXTT5=
EXTT6=
EXTT7=
EXTT8=
EXTT9=
EXTT10=
EXTT11=
EXTT12=
PLAYORDER=
